<?xml version="1.0" standalone="no"?><!DOCTYPE svg PUBLIC "-//W3C//DTD SVG 1.1//EN" "http://www.w3.org/Graphics/SVG/1.1/DTD/svg11.dtd"><svg t="1676875741224" class="icon" viewBox="0 0 1024 1024" version="1.1" xmlns="http://www.w3.org/2000/svg" p-id="3177" xmlns:xlink="http://www.w3.org/1999/xlink" width="64" height="64"><path d="M877.866667 644.906667H146.133333V232.533333c0-50.346667 40.96-91.306667 91.306667-91.306666h549.333333c50.346667 0 91.306667 40.96 91.306667 91.306666v412.373334z" fill="#4EC6CE" p-id="3178" data-spm-anchor-id="a313x.7781069.0.i27" class=""></path><path d="M826.026667 882.773333H197.973333c-60.586667 0-104.32-57.813333-87.893333-116.053333l35.84-128h731.946667l35.84 128c16.426667 58.453333-27.306667 116.053333-87.68 116.053333z" fill="#3296EF" p-id="3179" data-spm-anchor-id="a313x.7781069.0.i28" class=""></path><path d="M514.773333 367.36H280.533333c-23.466667 0-42.666667-19.2-42.666666-42.666667v-5.973333c0-23.466667 19.2-42.666667 42.666666-42.666667h234.24c23.466667 0 42.666667 19.2 42.666667 42.666667v5.973333c0 23.466667-19.2 42.666667-42.666667 42.666667zM735.786667 524.373333h-142.933334c-23.466667 0-42.666667-19.2-42.666666-42.666666v-5.973334c0-23.466667 19.2-42.666667 42.666666-42.666666h142.933334c23.466667 0 42.666667 19.2 42.666666 42.666666v5.973334a42.666667 42.666667 0 0 1-42.666666 42.666666z" fill="#e6e6e6" p-id="3180" data-spm-anchor-id="a313x.7781069.0.i29" class=""></path></svg>