<?xml version="1.0" standalone="no"?><!DOCTYPE svg PUBLIC "-//W3C//DTD SVG 1.1//EN" "http://www.w3.org/Graphics/SVG/1.1/DTD/svg11.dtd"><svg t="1676875577406" class="icon" viewBox="0 0 1024 1024" version="1.1" xmlns="http://www.w3.org/2000/svg" p-id="1942" xmlns:xlink="http://www.w3.org/1999/xlink" width="64" height="64"><path d="M320 885.12h-106.666667c-47.146667 0-85.333333-38.186667-85.333333-85.333333v-341.333334c0-47.146667 38.186667-85.333333 85.333333-85.333333h106.666667c47.146667 0 85.333333 38.186667 85.333333 85.333333v341.333334c0 47.146667-38.186667 85.333333-85.333333 85.333333z" fill="#e6e6e6" p-id="1943" data-spm-anchor-id="a313x.7781069.0.i15" class=""></path><path d="M810.666667 885.12H554.666667c-47.146667 0-85.333333-38.186667-85.333334-85.333333v-341.333334c0-47.146667 38.186667-85.333333 85.333334-85.333333h256c47.146667 0 85.333333 38.186667 85.333333 85.333333v341.333334c0 47.146667-38.186667 85.333333-85.333333 85.333333z" fill="#3296EF" p-id="1944" data-spm-anchor-id="a313x.7781069.0.i16" class=""></path><path d="M810.666667 309.546667H213.333333c-47.146667 0-85.333333-38.186667-85.333333-85.333334s38.186667-85.333333 85.333333-85.333333h597.333334c47.146667 0 85.333333 38.186667 85.333333 85.333333s-38.186667 85.333333-85.333333 85.333334z" fill="#4EC6CE" p-id="1945" data-spm-anchor-id="a313x.7781069.0.i14" class=""></path></svg>